HIERARCHY
ROOT pelvis
{
	OFFSET 0.000000 0.748829 -0.000000
	CHANNELS 6 Xposition Yposition Zposition Xrotation Yrotation Zrotation
	JOINT spine
	{
		OFFSET 0.000000 0.000000 0.000000
		CHANNELS 6 Xposition Yposition Zposition Xrotation Yrotation Zrotation
		JOINT spine.001
		{
			OFFSET 0.000000 0.242547 0.012711
			CHANNELS 3 Xrotation Yrotation Zrotation
			JOINT neck
			{
				OFFSET 0.000000 0.241069 -0.029600
				CHANNELS 6 Xposition Yposition Zposition Xrotation Yrotation Zrotation
				JOINT face
				{
					OFFSET 0.000000 0.203504 -0.003552
					CHANNELS 6 Xposition Yposition Zposition Xrotation Yrotation Zrotation
					End Site
					{
						OFFSET 0.000000 -0.007358 0.039915
					}
				}
			}
			JOINT shoulder.L
			{
				OFFSET 0.000000 0.241069 -0.029600
				CHANNELS 6 Xposition Yposition Zposition Yrotation Xrotation Zrotation
				JOINT upper_arm.L
				{
					OFFSET 0.165745 0.000000 0.000000
					CHANNELS 6 Xposition Yposition Zposition Xrotation Yrotation Zrotation
					JOINT forearm.L
					{
						OFFSET 0.270234 0.000934 -0.000113
						CHANNELS 6 Xposition Yposition Zposition Xrotation Yrotation Zrotation
						End Site
						{
							OFFSET 0.221268 -0.001285 0.003759
						}
					}
				}
			}
			JOINT shoulder.R
			{
				OFFSET 0.000000 0.241069 -0.029600
				CHANNELS 6 Xposition Yposition Zposition Yrotation Xrotation Zrotation
				JOINT upper_arm.R
				{
					OFFSET -0.165745 0.000000 0.000000
					CHANNELS 6 Xposition Yposition Zposition Xrotation Yrotation Zrotation
					JOINT forearm.R
					{
						OFFSET -0.269488 0.000934 -0.000113
						CHANNELS 6 Xposition Yposition Zposition Xrotation Yrotation Zrotation
						End Site
						{
							OFFSET -0.227797 -0.001286 0.003873
						}
					}
				}
			}
		}
	}
	JOINT pelvis.L
	{
		OFFSET 0.000000 0.000000 0.000000
		CHANNELS 6 Xposition Yposition Zposition Yrotation Xrotation Zrotation
		End Site
		{
			OFFSET 0.099755 0.000000 0.000000
		}
	}
	JOINT pelvis.R
	{
		OFFSET 0.000000 0.000000 0.000000
		CHANNELS 6 Xposition Yposition Zposition Yrotation Xrotation Zrotation
		End Site
		{
			OFFSET -0.099755 0.000000 0.000000
		}
	}
	JOINT thigh.L
	{
		OFFSET 0.099755 0.000000 0.000000
		CHANNELS 6 Xposition Yposition Zposition Xrotation Yrotation Zrotation
		JOINT shin.L
		{
			OFFSET 0.019080 -0.364061 0.000000
			CHANNELS 6 Xposition Yposition Zposition Xrotation Yrotation Zrotation
			JOINT foot.L
			{
				OFFSET 0.016961 -0.323630 0.000000
				CHANNELS 6 Xposition Yposition Zposition Xrotation Yrotation Zrotation
				End Site
				{
					OFFSET 0.014846 -0.063564 0.151372
				}
			}
		}
	}
	JOINT thigh.R
	{
		OFFSET -0.099755 0.000000 0.000000
		CHANNELS 6 Xposition Yposition Zposition Xrotation Yrotation Zrotation
		JOINT shin.R
		{
			OFFSET -0.018152 -0.346363 0.000000
			CHANNELS 6 Xposition Yposition Zposition Xrotation Yrotation Zrotation
			JOINT foot.R
			{
				OFFSET -0.017218 -0.328535 0.000000
				CHANNELS 6 Xposition Yposition Zposition Xrotation Yrotation Zrotation
				End Site
				{
					OFFSET -0.015855 -0.067884 0.161660
				}
			}
		}
	}
}
MOTION
Frames: 5
Frame Time: 0.041667
-0.014072 -0.015703 0.029775 0.000001 -9.500487 0.000005 -0.000000 -0.000000 0.000000 -9.753788 -0.097459 0.704409 10.004555 2.054694 -0.252399 -0.000000 0.241069 -0.029600 11.693727 8.405895 -2.027429 -0.000000 0.203504 -0.003552 -0.069452 0.000001 -0.000000 0.000000 0.241069 -0.029599 -0.104439 -0.000773 -0.850266 0.165745 -0.000000 -0.000000 -2.784329 -3.310157 -79.723156 0.270234 0.000934 -0.000113 -1.236161 -17.558319 -8.205041 0.000000 0.241069 -0.029599 -0.110599 -0.000869 -0.900458 -0.165745 -0.000000 -0.000000 -4.425013 5.201475 80.647868 -0.269488 0.000934 -0.000113 -1.313221 13.244439 12.411944 -0.000000 0.000000 0.000000 0.000026 0.000000 1.141572 -0.000000 -0.000000 0.000000 0.000003 -0.000000 1.141572 0.099735 0.001987 0.000000 9.985135 0.268336 -2.929100 0.019080 -0.364061 0.000000 -3.049396 -0.235365 2.825251 0.016961 -0.323630 0.000000 -6.754752 5.997112 3.607784 -0.099735 -0.001987 0.000000 7.906796 -0.141763 3.948926 -0.018152 -0.346363 0.000000 -4.141662 0.330305 -3.115765 -0.017218 -0.328535 0.000000 -5.151953 -2.383324 -1.641361 
-0.013995 -0.014086 0.030318 -0.000000 -9.341580 0.000005 0.000000 -0.000000 0.000000 -9.957992 -0.107893 0.769743 10.003968 1.911783 -0.234827 -0.000000 0.241069 -0.029600 11.818733 8.485075 -2.197359 0.000000 0.203504 -0.003552 0.142159 -0.000001 -0.000000 0.000000 0.241069 -0.029600 -0.114179 -0.000922 -0.930250 0.165745 0.000000 0.000000 -3.162455 -3.787628 -79.405833 0.270234 0.000934 -0.000113 -1.231363 -16.993133 -8.506536 0.000000 0.241069 -0.029600 -0.120354 -0.001025 -0.980401 -0.165745 0.000000 -0.000000 -4.363265 5.117148 80.769432 -0.269488 0.000934 -0.000113 -1.202598 12.586237 12.052087 -0.000000 -0.000000 0.000000 0.000009 -0.000000 1.617201 -0.000000 -0.000000 0.000000 0.000003 -0.000000 1.617201 0.099715 0.002815 -0.000000 10.051110 0.264742 -2.990136 0.019080 -0.364061 0.000000 -3.180212 -0.248411 2.930398 0.016961 -0.323630 0.000000 -7.185012 5.972618 3.667898 -0.099715 -0.002815 0.000000 7.994083 -0.137350 4.034428 -0.018152 -0.346363 0.000000 -4.106759 0.328564 -3.144612 -0.017218 -0.328535 0.000000 -5.001807 -2.420330 -1.639650 
-0.013927 -0.012811 0.030609 -0.000000 -9.238463 0.000005 0.000000 -0.000000 0.000000 -10.099355 -0.115350 0.815589 10.003723 1.847532 -0.226909 0.000000 0.241069 -0.029600 11.915475 8.526073 -2.297039 0.000000 0.203504 -0.003552 0.235306 0.000000 -0.000000 0.000000 0.241069 -0.029600 -0.119316 -0.001014 -0.971614 0.165745 0.000000 0.000000 -3.478255 -4.187794 -79.175225 0.270234 0.000934 -0.000113 -1.225212 -16.482387 -8.784790 0.000000 0.241069 -0.029600 -0.125467 -0.001119 -1.021848 -0.165745 0.000000 -0.000000 -4.318382 5.056297 80.855096 -0.269488 0.000934 -0.000113 -1.124888 12.123780 11.770391 -0.000000 -0.000000 0.000000 0.000044 -0.000000 1.944645 0.000000 0.000000 0.000000 -0.000001 0.000000 1.944645 0.099697 0.003385 -0.000000 10.105911 0.260754 -3.051615 0.019080 -0.364061 0.000000 -3.311048 -0.261867 3.042045 0.016961 -0.323630 0.000000 -7.476069 5.981966 3.721400 -0.099697 -0.003385 0.000000 8.052525 -0.134814 4.084864 -0.018152 -0.346363 0.000000 -4.065638 0.325309 -3.145504 -0.017218 -0.328535 0.000000 -5.002354 -2.457473 -1.657169 
-0.013855 -0.011984 0.030620 -0.000000 -9.201394 0.000005 0.000000 -0.000000 0.000000 -10.167826 -0.119310 0.839979 10.003746 1.868801 -0.229534 0.000000 0.241069 -0.029600 11.977482 8.525808 -2.316495 0.000000 0.203504 -0.003552 0.199713 0.000000 0.000000 0.000000 0.241069 -0.029599 -0.118772 -0.000999 -0.966839 0.165745 -0.000000 0.000000 -3.700238 -4.468384 -79.046510 0.270234 0.000934 -0.000113 -1.221989 -16.095426 -9.020272 0.000000 0.241069 -0.029599 -0.124939 -0.001106 -1.017030 -0.165745 -0.000000 -0.000000 -4.298945 5.030186 80.890286 -0.269488 0.000934 -0.000113 -1.083954 11.894289 11.593625 -0.000000 -0.000000 -0.000000 0.000068 -0.000001 2.099998 0.000000 0.000000 -0.000000 0.000000 -0.000000 2.099998 0.099688 0.003655 -0.000000 10.151206 0.256079 -3.117417 0.019080 -0.364061 0.000000 -3.437776 -0.275150 3.149524 0.016961 -0.323630 0.000000 -7.641539 6.041750 3.778883 -0.099688 -0.003655 0.000000 8.069611 -0.134487 4.093519 -0.018152 -0.346363 0.000000 -4.007141 0.319711 -3.119695 -0.017218 -0.328535 0.000000 -5.171362 -2.469622 -1.684541 
-0.013761 -0.011480 0.030488 -0.000000 -9.204214 0.000005 0.000000 -0.000000 0.000000 -10.194766 -0.121267 0.852363 10.003977 1.924713 -0.236410 -0.000000 0.241069 -0.029600 12.011229 8.506405 -2.293640 0.000000 0.203504 -0.003552 0.106928 0.000000 0.000000 0.000000 0.241069 -0.029599 -0.114653 -0.000926 -0.933483 0.165745 0.000000 0.000000 -3.823355 -4.623840 -78.983385 0.270234 0.000934 -0.000113 -1.226784 -15.894091 -9.200068 0.000000 0.241069 -0.029599 -0.120822 -0.001031 -0.983675 -0.165745 -0.000000 -0.000000 -4.301711 5.034213 80.882096 -0.269488 0.000934 -0.000113 -1.064998 11.797555 11.497150 0.000000 0.000000 0.000000 -0.000038 0.000000 2.153886 0.000000 0.000000 0.000000 0.000000 -0.000000 2.153852 0.099684 0.003749 -0.000000 10.189870 0.251031 -3.184973 0.019080 -0.364061 0.000000 -3.537382 -0.285459 3.224482 0.016961 -0.323630 0.000000 -7.788670 6.139084 3.852183 -0.099684 -0.003749 0.000000 8.045205 -0.134814 4.083067 -0.018152 -0.346363 0.000000 -3.915302 0.311504 -3.094239 -0.017218 -0.328535 0.000000 -5.403104 -2.441359 -1.700872 
